<svg width="100" height="100" viewBox="0 0 100 100" fill="none" xmlns="http://www.w3.org/2000/svg">
<path fill-rule="evenodd" clip-rule="evenodd" d="M25 0C11.1929 0 0 11.1929 0 25V75C0 88.8071 11.1929 100 25 100H75C88.8071 100 100 88.8071 100 75V25C100 11.1929 88.8071 0 75 0H25ZM31.1523 46.975C30.9073 47.675 31.0998 48.34 31.7298 48.97L44.2773 61.57C44.7323 62.025 45.2398 62.2525 45.7998 62.2525C46.3598 62.2525 46.8673 62.025 47.3223 61.57L68.2698 40.57C68.8648 39.975 69.0398 39.31 68.7948 38.575C68.5498 37.805 68.0598 37.2975 67.3248 37.0526C66.6248 36.8075 65.9598 37 65.3298 37.6301L45.7998 57.1075L34.6698 46.03C34.0748 45.435 33.3923 45.26 32.6223 45.5051C31.8873 45.75 31.3973 46.24 31.1523 46.975Z" fill="white"/>
</svg>
