<svg width="100" height="100" viewBox="0 0 100 100" fill="none" xmlns="http://www.w3.org/2000/svg">
<path fill-rule="evenodd" clip-rule="evenodd" d="M25 0C11.1929 0 0 11.1929 0 25V75C0 88.8071 11.1929 100 25 100H75C88.8071 100 100 88.8071 100 75V25C100 11.1929 88.8071 0 75 0H25ZM56.669 69.9434C52.6792 69.9434 49.2856 68.0344 47.947 66.7105C46.7433 65.7279 39.1462 58.392 32.959 52.3875C32.8695 52.3006 32.7933 52.227 32.7316 52.1675L32.7315 52.1674L32.7313 52.1673C32.6201 52.0599 32.5562 51.9982 32.5465 51.9862C31.8453 51.2848 31.4103 50.5535 31.2866 49.8634C31.1441 49.0795 31.3878 48.3707 32.0028 47.7519C32.5653 47.1893 33.2552 46.893 34.0052 46.893C34.8864 46.893 35.7714 47.2981 36.4988 48.0294L42.7272 54.0152L32.7678 43.7314C31.6203 42.5837 31.0429 40.6822 32.494 39.2346C33.0565 38.672 33.7465 38.3757 34.4964 38.3757C35.3776 38.3757 36.2626 38.7808 36.99 39.5121L47.167 49.4358L34.9389 36.898C34.2864 36.2454 33.8852 35.4466 33.814 34.6515C33.7427 33.8039 34.0352 33.0275 34.6614 32.4012C35.2239 31.8386 35.9138 31.5423 36.6638 31.5423C37.5413 31.5423 38.4262 31.9436 39.1574 32.675L51.6293 44.8378L42.5698 35.5253C41.9135 34.869 41.5123 34.0702 41.4448 33.2751C41.3736 32.4312 41.666 31.6549 42.2923 31.0285C42.8547 30.466 43.5447 30.1697 44.2947 30.1697C45.1759 30.1697 46.0608 30.5747 46.7883 31.3061L49.4919 33.9576C54.3104 38.6832 58.3377 42.64 58.7689 43.0825C58.9789 43.2513 59.2526 43.3151 59.3689 43.2588C59.4439 43.2213 59.5264 43.0488 59.5114 42.685C59.4894 42.064 59.4035 41.2971 59.3124 40.4849L59.3124 40.4843L59.3123 40.4839L59.3123 40.4833L59.3122 40.483L59.3051 40.4197L59.3039 40.4089L59.3039 40.4088C59.1168 38.732 58.9232 36.9968 59.1664 35.8516C59.6988 33.8601 60.745 33.0163 61.525 32.6525C62.5974 32.1574 63.6361 32.3299 63.8349 32.4237C65.7826 33.3378 65.3994 34.8657 64.8678 36.9848L64.8661 36.9918L64.8548 37.0443L64.7948 37.4831C64.4049 39.4033 66.4072 44.7102 68.4096 49.0345L68.4396 49.0945C69.7783 52.0199 72.1894 59.5246 65.7398 65.9754C62.7737 68.9345 59.5639 69.9434 56.669 69.9434ZM49.6895 27.6893C50.8219 27.3931 52.0293 27.4193 53.203 27.6931C54.3692 27.9744 55.5354 28.567 56.4016 29.5346C57.2491 30.4947 57.7703 31.6611 57.9465 32.8837C58.1115 34.0951 57.9578 35.3441 57.3841 36.3792C57.3166 35.2165 57.1141 34.1477 56.7728 33.1613C56.5966 32.67 56.3904 32.2012 56.1391 31.7586C55.8916 31.3198 55.5991 30.8847 55.2879 30.5285C54.6542 29.7971 53.7955 29.227 52.8318 28.7845C51.8643 28.3269 50.8106 27.9894 49.6895 27.6893ZM52.1486 30.8914C51.4099 30.7602 50.6262 30.8427 50 31.2402C50.69 31.4652 51.2637 31.7128 51.7737 32.0091C52.2874 32.2978 52.7299 32.6316 53.1498 33.0104C53.5586 33.4005 53.9373 33.8393 54.3273 34.3231C54.4103 34.4249 54.4887 34.5306 54.568 34.6376C54.6786 34.7867 54.7909 34.9381 54.9197 35.0844C55.111 35.3507 55.3135 35.6245 55.5722 35.8983C55.6285 35.5382 55.6285 35.1782 55.6097 34.8182C55.5535 34.4694 55.4935 34.1093 55.3735 33.768C55.126 33.0854 54.7285 32.4291 54.1698 31.9078C53.6073 31.394 52.8948 31.0227 52.1486 30.8914ZM28.5589 55.0057C29.0876 56.0409 29.6389 57.001 30.2801 57.8486C30.9176 58.6962 31.6488 59.4163 32.5 59.8851C32.9124 60.1139 33.4037 60.3127 33.8836 60.4627C34.3674 60.6164 34.8698 60.7215 35.3873 60.7927C36.4223 60.9202 37.5097 60.8977 38.6609 60.7215C37.7684 61.4978 36.576 61.9104 35.3611 62.0004C34.1311 62.0829 32.8824 61.8166 31.765 61.1865C30.6401 60.5452 29.8151 59.5251 29.2976 58.4412C28.7802 57.3498 28.5027 56.1759 28.5589 55.0057ZM33.2234 56.1489C32.8296 55.7063 32.4697 55.2 32.1059 54.5699C31.8472 55.2675 31.9297 56.0476 32.2147 56.7452C32.4959 57.4466 33.0096 58.0654 33.6284 58.5117C34.2583 58.9505 34.9783 59.2018 35.6982 59.2993C36.0416 59.3458 36.3883 59.3309 36.7255 59.3164L36.7744 59.3143C37.1307 59.258 37.4794 59.183 37.8206 59.0555C37.4981 58.8567 37.1907 58.718 36.8869 58.5867C36.716 58.4903 36.5438 58.4117 36.3748 58.3347C36.2546 58.2799 36.136 58.2259 36.0207 58.1666C35.4658 57.8854 34.9558 57.6041 34.4908 57.2853C34.0333 56.9552 33.6134 56.5914 33.2234 56.1489Z" fill="white"/>
</svg>
