<svg width="224" height="207" viewBox="0 0 224 207" fill="none" xmlns="http://www.w3.org/2000/svg">
<rect x="54.2188" y="39.1187" width="143.666" height="169.572" transform="rotate(-9.43312 54.2188 39.1187)" fill="#0169EE"/>
<rect x="19.4258" y="50.2766" width="132.16" height="155.969" transform="rotate(-21.4386 19.4258 50.2766)" fill="white"/>
<path fill-rule="evenodd" clip-rule="evenodd" d="M132.772 0.378178L18.7266 41.0848C17.9582 41.3591 17.6408 42.2886 18.0177 43.161L84.0276 195.965C84.4045 196.837 85.3329 197.322 86.1014 197.048L200.147 156.341C200.916 156.067 201.233 155.137 200.856 154.265L134.846 1.46119C134.469 0.588781 133.541 0.1039 132.772 0.378178ZM132.737 4.06198L197.358 153.662L86.1365 193.364L21.5154 43.7636L132.737 4.06198Z" fill="#2E186A"/>
<path fill-rule="evenodd" clip-rule="evenodd" d="M35.2751 67.5716C36.5295 67.0793 37.9456 67.6972 38.4379 68.9517C38.9157 70.1693 38.3477 71.539 37.1669 72.0687L37.0578 72.1145L14.3233 81.0363C13.0688 81.5286 11.6528 80.9107 11.1605 79.6563C10.6827 78.4387 11.2507 77.0689 12.4315 76.5393L12.5405 76.4935L35.2751 67.5716Z" fill="#2E186A"/>
<path fill-rule="evenodd" clip-rule="evenodd" d="M44.7294 91.6516C45.9829 91.1567 47.4002 91.7717 47.895 93.0252C48.3753 94.2417 47.8101 95.6127 46.6304 96.1447L46.5215 96.1908L23.7869 105.166C22.5335 105.661 21.1162 105.046 20.6213 103.793C20.141 102.576 20.7062 101.205 21.8859 100.673L21.9949 100.627L44.7294 91.6516Z" fill="#2E186A"/>
<path fill-rule="evenodd" clip-rule="evenodd" d="M54.194 115.782C55.4485 115.29 56.8645 115.907 57.3568 117.162C57.8346 118.379 57.2666 119.749 56.0858 120.279L55.9768 120.325L33.2423 129.247C31.9878 129.739 30.5718 129.121 30.0795 127.866C29.6016 126.649 30.1696 125.279 31.3505 124.749L31.4595 124.704L54.194 115.782Z" fill="#2E186A"/>
<path fill-rule="evenodd" clip-rule="evenodd" d="M63.653 139.86C64.9075 139.368 66.3235 139.985 66.8158 141.24C67.2936 142.457 66.7256 143.827 65.5448 144.357L65.4358 144.403L42.7012 153.325C41.4468 153.817 40.0307 153.199 39.5384 151.944C39.0606 150.727 39.6286 149.357 40.8094 148.827L40.9185 148.782L63.653 139.86Z" fill="#2E186A"/>
<path fill-rule="evenodd" clip-rule="evenodd" d="M73.1639 163.939C74.4177 163.445 75.8345 164.061 76.3284 165.315C76.8077 166.532 76.2414 167.903 75.0613 168.434L74.9523 168.48L52.164 177.455C50.9102 177.949 49.4934 177.333 48.9995 176.079C48.5202 174.862 49.0865 173.492 50.2666 172.961L50.3756 172.915L73.1639 163.939Z" fill="#2E186A"/>
<path fill-rule="evenodd" clip-rule="evenodd" d="M147.259 50.0105L144.464 60.3297L144.733 157.664H150.376L150.107 60.276L147.259 50.0105Z" fill="#2E186A"/>
<path fill-rule="evenodd" clip-rule="evenodd" d="M154.428 129.057C155.294 129.039 156.016 129.702 156.083 130.554L156.088 130.65L156.571 154.244C156.589 155.124 155.906 155.852 155.039 155.902L154.945 155.904H144.733C143.835 155.904 143.106 155.176 143.106 154.278C143.106 153.411 143.784 152.703 144.638 152.654L144.733 152.651L153.284 152.651L152.835 130.716C152.817 129.85 153.48 129.128 154.332 129.061L154.428 129.057Z" fill="#0169EE"/>
<path fill-rule="evenodd" clip-rule="evenodd" d="M145.808 93.8673H148.925C150.269 93.8673 151.344 92.7924 151.344 91.5025L151.505 67.9081C151.505 66.5644 150.43 65.4895 149.14 65.4895H146.023C144.68 65.4895 143.605 66.5644 143.605 67.8543L143.443 91.4488C143.443 92.7924 144.518 93.8673 145.808 93.8673Z" fill="#0169EE"/>
<path fill-rule="evenodd" clip-rule="evenodd" d="M147.732 119.275C148.598 119.297 149.288 119.993 149.316 120.847L149.316 120.943L148.994 133.52C148.971 134.418 148.224 135.127 147.326 135.104C146.46 135.082 145.769 134.387 145.742 133.532L145.741 133.436L146.064 120.86C146.087 119.962 146.833 119.252 147.732 119.275Z" fill="#0169EE"/>
<rect x="44" y="56.6199" width="86" height="13" transform="rotate(-20.1463 44 56.6199)" fill="#EAEAEA"/>
<rect x="62.6074" y="95.032" width="75.4857" height="13" transform="rotate(-20.1463 62.6074 95.032)" fill="#EAEAEA"/>
<rect x="71.6074" y="115.549" width="41.0444" height="13" transform="rotate(-20.1463 71.6074 115.549)" fill="#2E186A"/>
<rect x="53.6074" y="77.032" width="62.7898" height="13" transform="rotate(-20.1463 53.6074 77.032)" fill="#EAEAEA"/>
<rect x="79.6074" y="135.038" width="54.7689" height="13" transform="rotate(-20.1463 79.6074 135.038)" fill="#EAEAEA"/>
</svg>
